SplineFontDB: 3.0
FontName: StickNoBills
FullName: Stick No Bills
FamilyName: Stick No Bills
Weight: Regular
Copyright: Copyright (c) 2013, STICK NO BILLS\nCopyright (c) 2015, mooniak\n
UComments: "2015-2-15: Created with FontForge (http://fontforge.org)"
Version: 001.000
ItalicAngle: 0
UnderlinePosition: -102
UnderlineWidth: 51
Ascent: 819
Descent: 205
InvalidEm: 0
LayerCount: 2
Layer: 0 0 "Back" 1
Layer: 1 0 "Fore" 0
XUID: [1021 792 -450466945 9124014]
FSType: 0
OS2Version: 0
OS2_WeightWidthSlopeOnly: 0
OS2_UseTypoMetrics: 1
CreationTime: 1423989519
ModificationTime: 1426575879
PfmFamily: 81
TTFWeight: 400
TTFWidth: 5
LineGap: 94
VLineGap: 0
OS2TypoAscent: 0
OS2TypoAOffset: 1
OS2TypoDescent: 0
OS2TypoDOffset: 1
OS2TypoLinegap: 94
OS2WinAscent: 0
OS2WinAOffset: 1
OS2WinDescent: 0
OS2WinDOffset: 1
HheadAscent: 0
HheadAOffset: 1
HheadDescent: 0
HheadDOffset: 1
OS2CapHeight: 0
OS2XHeight: 0
OS2Vendor: 'PfEd'
OS2UnicodeRanges: 00000002.00000000.00000000.00000000
MarkAttachClasses: 1
DEI: 91125
LangName: 1033 "" "" "" "SNBMooniak" "" "" "" "STICK NO BILLS is a trademark of STICK NO BILLS Gallery, Sri Lanka <http://sticknobillsonline.com>" "mooniak <http://mooniak.com>" "Martyn Hodges <allroundboatbuilder@yahoo.com> , mooniak <hello@mooniak.com>" "Stick No Bills - is the bespoke typeface of STICK NO BILLS+ISIA Poster Gallery in Galle, Sri Lanka. " "https://github.com/mooniak/stick-no-bills-font" "http://mooniak.com/type" "This Font Software is licensed under the SIL Open Font License, Version 1.1. This license is available with a FAQ at: http://scripts.sil.org/OFL"
Encoding: ISO8859-1
Compacted: 1
UnicodeInterp: none
NameList: AGL For New Fonts
DisplaySize: -128
AntiAlias: 1
FitToEm: 1
WinInfo: 40 10 4
BeginPrivate: 0
EndPrivate
Grid
-1024 705 m 0
 2048 705 l 1024
-1024 -5 m 0
 2048 -5 l 1024
26 1331 m 0
 26 -717 l 1024
  Named: "side bearing 1"
-1024 700 m 0
 2048 700 l 1024
EndSplineSet
BeginChars: 274 120

StartChar: A
Encoding: 65 65 0
Width: 516
VWidth: 0
Flags: HMW
LayerCount: 2
Back
Fore
SplineSet
155 582 m 1
 170 582 l 1
 230 302 l 1
 164 0 l 1
 26 0 l 1
 155 582 l 1
200 700 m 1
 339 700 l 1
 490 0 l 1
 353 0 l 1
 333 85 l 1
 239 85 l 1
 269 223 l 1
 305 223 l 1
 200 700 l 1
EndSplineSet
EndChar

StartChar: B
Encoding: 66 66 1
Width: 474
VWidth: 0
Flags: HMW
LayerCount: 2
Back
Fore
SplineSet
221 122 m 1
 308 122 324 179 324 205 c 0
 324 227 311 289 221 289 c 1
 221 411 l 1
 281 411 322 446 322 497 c 0
 322 547 280 576 221 577 c 1
 221 700 l 1
 390 697 447 587 447 513 c 0
 447 398 420 378 385 352 c 1
 421 324 448 295 448 197 c 0
 448 68 342 1 221 0 c 1
 221 122 l 1
26 700 m 5
 167 700 l 5
 167 0 l 1
 26 0 l 1
 26 700 l 5
EndSplineSet
Colour: ff0000
EndChar

StartChar: D
Encoding: 68 68 2
Width: 444
VWidth: 0
Flags: HMW
LayerCount: 2
Back
Fore
SplineSet
221 0 m 1
 221 141 l 1
 227 141 276 149 277 197 c 2
 277 503 l 1
 277 508 269 558 221 559 c 1
 221 700 l 1
 364 700 418 566 418 503 c 1
 418 197 l 1
 418 50 281 0 221 0 c 1
26 700 m 1
 167 700 l 1
 167 0 l 1
 26 0 l 1
 26 700 l 1
EndSplineSet
EndChar

StartChar: I
Encoding: 73 73 3
Width: 193
VWidth: 0
Flags: HMW
LayerCount: 2
Back
Fore
SplineSet
26 700 m 1
 167 700 l 1
 167 0 l 1
 26 0 l 1
 26 700 l 1
EndSplineSet
EndChar

StartChar: L
Encoding: 76 76 4
Width: 428
VWidth: 0
Flags: HMW
LayerCount: 2
Back
Fore
SplineSet
402 139 m 1
 402 0 l 1
 26 0 l 1
 26 700 l 1
 167 700 l 1
 167 139 l 1
 402 139 l 1
EndSplineSet
EndChar

StartChar: T
Encoding: 84 84 5
Width: 534
VWidth: 0
Flags: HMW
LayerCount: 2
Back
Fore
SplineSet
484 699 m 1
 484 561 l 1
 334 561 l 1
 334 0 l 1
 193 0 l 1
 193 561 l 1
 50 561 l 1
 50 699 l 1
 484 699 l 1
EndSplineSet
EndChar

StartChar: K
Encoding: 75 75 6
Width: 483
VWidth: 0
Flags: HMW
LayerCount: 2
Back
Fore
SplineSet
314 700 m 5
 453 700 l 5
 347 341 l 5
 457 0 l 5
 319 0 l 5
 207 341 l 5
 314 700 l 5
26 700 m 1
 167 700 l 1
 167 0 l 1
 26 0 l 1
 26 700 l 1
EndSplineSet
EndChar

StartChar: P
Encoding: 80 80 7
Width: 474
VWidth: 0
Flags: HMW
LayerCount: 2
Back
Fore
SplineSet
221 457 m 1
 254 457 l 2
 261 457 305 458 305 508 c 0
 305 559 263 561 254 561 c 2
 221 561 l 1
 221 700 l 1
 402 700 448 626 448 512 c 0
 448 369 378 318 221 318 c 1
 221 457 l 1
26 700 m 1
 167 700 l 1
 167 0 l 1
 26 0 l 1
 26 700 l 1
EndSplineSet
EndChar

StartChar: M
Encoding: 77 77 8
Width: 664
VWidth: 0
Flags: HMW
LayerCount: 2
Back
Fore
SplineSet
26 0 m 1
 26 444 l 1
 35 444 l 1
 167 127 l 1
 167 0 l 1
 26 0 l 1
26 700 m 1
 136 700 l 1
 327 237 l 1
 433 476 l 1
 443 476 l 1
 443 151 l 1
 376 0 l 1
 279 0 l 1
 26 608 l 1
 26 700 l 1
497 700 m 1
 638 700 l 1
 638 0 l 1
 497 0 l 1
 497 700 l 1
EndSplineSet
EndChar

StartChar: R
Encoding: 82 82 9
Width: 489
VWidth: 0
Flags: HMW
LayerCount: 2
Back
SplineSet
221 411 m 5
 234 411 l 6
 294 411 320 447 320 488 c 4
 320 536 283 567 234 567 c 6
 221 567 l 5
 221 700 l 5
 371 700 447 616 447 496 c 4
 447 428 426 381 380 352 c 5
 416 325 446 267 446 217 c 6
 448 0 l 5
 322 0 l 5
 322 178 l 6
 322 259 292 285 221 286 c 5
 221 411 l 5
26 700 m 5
 167 700 l 5
 167 0 l 5
 26 0 l 5
 26 700 l 5
EndSplineSet
Fore
SplineSet
221 411 m 1
 234 411 l 2
 294 411 320 447 320 488 c 0
 320 536 283 567 234 567 c 2
 221 567 l 1
 221 700 l 1
 371 700 447 616 447 496 c 0
 447 428 426 381 380 352 c 1
 416 325 442.184705982 265.701105999 446 217 c 2
 463 0 l 1
 337 0 l 1
 322 178 l 2
 315.305963835 257.435895829 292 285 221 286 c 1
 221 411 l 1
26 700 m 1
 167 700 l 1
 167 0 l 1
 26 0 l 1
 26 700 l 1
EndSplineSet
EndChar

StartChar: J
Encoding: 74 74 10
Width: 489
VWidth: 0
Flags: HMW
LayerCount: 2
Back
SplineSet
73.6689453125 179.250976562 m 1025,3,-1
EndSplineSet
Fore
SplineSet
213 -5 m 1
 153 -5 26 54 26 193 c 1
 26 242 l 1
 167 242 l 1
 167 193 l 2
 168 147 208 137 213 137 c 1
 213 -5 l 1
267 -5 m 1
 267 137 l 1
 272 137 322 147 323 193 c 2
 323 700 l 1
 463 700 l 1
 463 193 l 1
 463 49 327 -5 267 -5 c 1
EndSplineSet
EndChar

StartChar: C
Encoding: 67 67 11
Width: 488
VWidth: 0
Flags: HMW
LayerCount: 2
Back
Fore
SplineSet
277 564 m 1
 277 705 l 1
 369 705 462 612 462 516 c 1
 324 480 l 1
 324 495 l 2
 324 509 324 520 319 532 c 0
 309 555 277 564 277 564 c 1
277 136 m 1
 277 136 309 143 319 166 c 0
 324 178 324 189 324 203 c 2
 324 215 l 1
 462 182 l 1
 462 76 369 -5 277 -5 c 1
 277 136 l 1
223 705 m 1
 223 564 l 1
 177 563 167 523 167 518 c 1
 167 181 l 1
 167 176 177 136 223 136 c 1
 223 -5 l 1
 80 -5 26 121 26 181 c 1
 26 518 l 1
 26 578 80 705 223 705 c 1
EndSplineSet
EndChar

StartChar: U
Encoding: 85 85 12
Width: 548
VWidth: 0
Flags: HMW
LayerCount: 2
Back
Fore
SplineSet
247 -8 m 1
 187 -8 50 46 50 190 c 1
 50 700 l 1
 191 700 l 1
 191 190 l 2
 192 144 242 134 247 134 c 1
 247 -8 l 1
499 190 m 1
 499 46 362 -8 302 -8 c 1
 302 134 l 1
 307 134 357 144 358 190 c 2
 358 700 l 1
 498 700 l 1
 498 190 l 1
 499 190 l 1
EndSplineSet
EndChar

StartChar: E
Encoding: 69 69 13
Width: 416
VWidth: 0
Flags: HMW
LayerCount: 2
Back
Fore
SplineSet
390 141 m 1
 390 0 l 1
 26 0 l 1
 26 700 l 1
 390 700 l 1
 390 560 l 1
 167 560 l 1
 167 418 l 1
 296 418 l 1
 296 277 l 1
 167 277 l 1
 167 141 l 1
 390 141 l 1
EndSplineSet
EndChar

StartChar: O
Encoding: 79 79 14
Width: 500
VWidth: 0
Flags: HMW
LayerCount: 2
Back
Fore
SplineSet
222 -5 m 5
 162 -5 26 51 26 195 c 6
 26 524 l 6
 26 584 91 705 223 705 c 5
 223 564 l 5
 177 563 167 513 167 508 c 6
 167 195 l 6
 167 149 217 137 222 137 c 5
 222 -5 l 5
277 -5 m 5
 277 137 l 5
 282 137 332 149 333 195 c 6
 333 508 l 6
 333 513 323 563 277 564 c 5
 277 705 l 5
 408 705 474 583 474 524 c 6
 474 195 l 6
 474 51 337 -5 277 -5 c 5
EndSplineSet
EndChar

StartChar: F
Encoding: 70 70 15
Width: 416
VWidth: 0
Flags: HMW
LayerCount: 2
Back
Fore
SplineSet
296 418 m 1
 296 277 l 1
 167 277 l 1
 167 1 l 1
 26 1 l 1
 26 700 l 1
 390 700 l 1
 390 560 l 1
 167 560 l 1
 167 418 l 1
 296 418 l 1
EndSplineSet
EndChar

StartChar: H
Encoding: 72 72 16
Width: 446
VWidth: 0
Flags: HMW
LayerCount: 2
Back
Fore
SplineSet
196 421 m 1
 196 283 l 1
 167 283 l 1
 167 0 l 1
 26 0 l 1
 26 700 l 1
 167 700 l 1
 167 421 l 1
 196 421 l 1
279 700 m 1
 420 700 l 1
 420 0 l 1
 279 0 l 1
 279 283 l 1
 250 283 l 1
 250 421 l 1
 279 421 l 1
 279 700 l 1
EndSplineSet
EndChar

StartChar: Q
Encoding: 81 81 17
Width: 500
VWidth: 0
Flags: HMW
LayerCount: 2
Back
SplineSet
246 -8 m 5
 186 -8 49 46 49 190 c 6
 50 524 l 6
 50 583 114 705 246 705 c 5
 246 564 l 5
 200 563 190 513 190 508 c 6
 190 190 l 6
 191 144 241 134 246 134 c 5
 246 -8 l 5
489 132 m 5
 544 52 l 5
 435 -29 l 5
 398 22 l 5
 363 2 325 -7 301 -8 c 5
 301 134 l 5
 306 134 356 144 356 190 c 6
 356 508 l 6
 356 513 347 563 301 564 c 5
 301 705 l 5
 432 705 497 583 497 524 c 6
 497 190 l 6
 497 169 495 149 489 132 c 5
EndSplineSet
Fore
SplineSet
277 -5 m 1
 389 70 l 25
 460 -32 l 1
 348 -107 l 25
 277 -5 l 1
222 -5 m 1
 162 -5 26 51 26 195 c 2
 26 524 l 2
 26 584 91 705 223 705 c 1
 223 564 l 1
 177 563 167 513 167 508 c 2
 167 195 l 2
 167 149 217 137 222 137 c 1
 222 -5 l 1
277 -5 m 1
 277 137 l 1
 282 137 332 149 333 195 c 2
 333 508 l 2
 333 513 323 563 277 564 c 1
 277 705 l 1
 408 705 474 583 474 524 c 2
 474 195 l 2
 474 51 337 -5 277 -5 c 1
EndSplineSet
EndChar

StartChar: G
Encoding: 71 71 18
Width: 487
VWidth: 0
Flags: HMW
LayerCount: 2
Back
SplineSet
249.934570312 550.514648438 m 1025,93,94
249.934570312 149.44140625 m 1025,107,-1
EndSplineSet
Fore
SplineSet
276 564 m 1
 276 705 l 1
 369 705 461 612 461 516 c 1
 323 465 l 1
 323 495 l 2
 323 509 323 520 318 532 c 0
 308 555 276 564 276 564 c 1
461 353 m 1
 461 176 l 2
 461 95 358 -4 276 -5 c 1
 276 136 l 1
 282 136 319 155 319 190 c 2
 319 223 l 1
 276 223 l 1
 276 353 l 1
 461 353 l 1
222 -5 m 1
 162 -5 26 48 26 192 c 1
 26 524 l 1
 34 589 90 705 222 705 c 1
 222 564 l 1
 176 563 167 513 167 508 c 1
 167 192 l 2
 168 146 217 136 222 136 c 1
 222 -5 l 1
EndSplineSet
EndChar

StartChar: S
Encoding: 83 83 19
Width: 497
VWidth: 0
Flags: HMWO
LayerCount: 2
Back
Fore
SplineSet
218 702 m 1
 218 568 l 1
 197 562 180 535 180 511 c 0
 180 444 284 436 351 396 c 0
 412 360 473 324 473 209 c 0
 473 83 381 -5 273 -5 c 1
 273 127 l 1
 297 130 338 150 338 203 c 0
 338 278 229 296 169 325 c 0
 98 359 43 404 43 509 c 0
 43 654 167 701 218 702 c 1
273 702 m 1
 378 702 452 587 452 527 c 1
 317 503 l 1
 317 555 273 568 273 568 c 1
 273 702 l 1
218 -5 m 1
 107 -5 26 111 26 180 c 1
 162 205 l 1
 162 148 218 127 218 127 c 1
 218 -5 l 1
EndSplineSet
EndChar

StartChar: V
Encoding: 86 86 20
Width: 555
VWidth: 0
Flags: HMW
LayerCount: 2
Back
Fore
SplineSet
49 699 m 1
 193 699 l 1
 352 158 l 1
 299 0 l 1
 252 0 l 1
 49 699 l 1
505 699 m 1
 465 568 424 430 382 290 c 1
 372 290 l 1
 306 514 l 1
 361 699 l 1
 505 699 l 1
EndSplineSet
EndChar

StartChar: W
Encoding: 87 87 21
Width: 773
VWidth: 0
Flags: HMW
LayerCount: 2
Back
Fore
SplineSet
50 699 m 1
 194 699 l 1
 352 158 l 1
 300 0 l 1
 253 0 l 1
 50 699 l 1
263 699 m 1
 407 699 l 1
 565 158 l 1
 513 0 l 1
 466 0 l 1
 263 699 l 1
723 699 m 1
 600 290 l 1
 590 290 l 1
 524 514 l 1
 579 699 l 1
 723 699 l 1
EndSplineSet
EndChar

StartChar: N
Encoding: 78 78 22
Width: 497
VWidth: 0
Flags: HMW
LayerCount: 2
Back
Fore
SplineSet
26 0 m 1
 26 492 l 1
 34 492 l 1
 167 278 l 1
 167 0 l 1
 26 0 l 1
471 700 m 1
 471 284 l 1
 463 284 l 1
 330 498 l 1
 330 700 l 1
 471 700 l 1
26 700 m 1
 141 700 l 1
 471 168 l 1
 471 0 l 1
 404 0 l 1
 26 608 l 1
 26 700 l 1
EndSplineSet
EndChar

StartChar: one
Encoding: -1 49 23
Width: 309
VWidth: 0
Flags: HMW
LayerCount: 2
Back
Fore
SplineSet
99 499 m 1
 43 444 l 1
 43 645 l 1
 99 701 l 1
 104 701 l 1
 226 701 l 1
 226 -0 l 1
 99 -0 l 1
 99 499 l 1
EndSplineSet
Validated: 1
EndChar

StartChar: two
Encoding: -1 50 24
Width: 515
VWidth: 0
Flags: HMW
LayerCount: 2
Back
Fore
SplineSet
464 127 m 1
 464 0 l 1
 63 0 l 1
 63 127 l 1
 464 127 l 1
209 703 m 1
 209 577 l 2
 208 577 161 561 161 499 c 1
 43 524 l 1
 52 608 114 691 209 703 c 1
264 578 m 1
 264 704 l 1
 266 704 269 704 271 704 c 0
 425 704 471 573 472 500 c 0
 472 499 472 498 472 497 c 0
 472 393 411 364 352 319 c 0
 281 265 247 235 210 186 c 1
 70 186 l 1
 135 306 232 363 262 388 c 0
 306 424 353 438 354 500 c 0
 354 501 354 501 354 502 c 0
 354 552 319 576 264 578 c 1
209 577 m 2
 209 577 209 577 209 577 c 2
 209 577 209 577 209 577 c 2
 209 577 l 2
EndSplineSet
Validated: 1
EndChar

StartChar: four
Encoding: 52 52 25
Width: 539
VWidth: 0
Flags: HMW
LayerCount: 2
Back
Fore
SplineSet
240 272 m 1
 240 145 l 1
 50 145 l 1
 50 272 l 1
 240 598 l 1
 240 351 l 1
 194 272 l 1
 240 272 l 1
478 272 m 1
 478 145 l 1
 424 145 l 1
 424 0 l 1
 297 0 l 1
 297 701 l 1
 424 701 l 1
 424 272 l 1
 478 272 l 1
EndSplineSet
EndChar

StartChar: X
Encoding: 88 88 26
Width: 480
VWidth: 0
Flags: HMW
LayerCount: 2
Back
Fore
SplineSet
60 699 m 1
 197 699 l 1
 237 581 l 1
 275 699 l 1
 420 699 l 1
 311 358 l 1
 430 0 l 1
 285 0 l 1
 240 134 l 1
 197 0 l 1
 50 0 l 1
 165 358 l 1
 60 699 l 1
EndSplineSet
EndChar

StartChar: Y
Encoding: 89 89 27
Width: 527
VWidth: 0
Flags: HMW
LayerCount: 2
Back
Fore
SplineSet
50 699 m 1
 197 699 l 1
 327 253 l 1
 327 0 l 1
 181 0 l 1
 181 252 l 1
 50 699 l 1
293 565 m 1
 332 699 l 1
 477 699 l 1
 369 312 l 1
 293 565 l 1
EndSplineSet
EndChar

StartChar: Z
Encoding: 90 90 28
Width: 434
VWidth: 0
Flags: HMW
LayerCount: 2
Back
Fore
SplineSet
198 141 m 1
 384 141 l 1
 384 0 l 1
 50 0 l 1
 50 141 l 1
 236 564 l 1
 50 564 l 1
 50 699 l 1
 384 699 l 1
 384 564 l 1
 198 141 l 1
EndSplineSet
EndChar

StartChar: one
Encoding: 49 49 30
Width: 283
VWidth: 0
Flags: HMW
LayerCount: 2
Back
Fore
SplineSet
106 499 m 1
 50 444 l 1
 50 645 l 1
 106 699 l 1
 233 699 l 1
 233 0 l 1
 106 0 l 1
 106 499 l 1
EndSplineSet
EndChar

StartChar: at
Encoding: 64 64 31
Width: 899
VWidth: 0
Flags: HMW
LayerCount: 2
Back
Fore
SplineSet
711 142 m 1
 756 64 l 1
 681 2 573 -21 444 -22 c 0
 443 -22 442 -22 442 -22 c 0
 206 -22 50 133 50 354 c 0
 50 581 241 757 497 757 c 0
 670 757 847 632 847 457 c 0
 847 253 712 161 587 161 c 0
 583 161 579 161 575 161 c 0
 532 163 511 182 501 206 c 1
 483 184 446 161 387 161 c 0
 306 161 239 222 239 315 c 0
 239 316 239 318 239 319 c 0
 239 491 367 564 452 564 c 0
 516 564 538 538 553 522 c 1
 561 549 l 1
 656 549 l 1
 595 330 l 2
 592 319 588 302 588 288 c 0
 588 276 592 265 602 265 c 0
 604 265 606 265 609 265 c 0
 677 265 738 325 738 457 c 0
 738 575 597 653 498 653 c 0
 292 653 154 510 154 352 c 0
 154 187 278 75 444 75 c 0
 587 75 665 112 711 142 c 1
EndSplineSet
EndChar

StartChar: two
Encoding: 50 50 32
Width: 529
VWidth: 0
Flags: HMW
LayerCount: 2
Back
Fore
SplineSet
471 127 m 1
 471 0 l 1
 67 0 l 1
 67 127 l 1
 471 127 l 1
216 703 m 1
 216 577 l 2
 215 577 168 561 168 499 c 1
 50 524 l 1
 59 608 121 691 216 703 c 1
271 578 m 1
 271 704 l 1
 273 704 276 704 278 704 c 0
 432 704 478 573 479 500 c 0
 479 499 479 498 479 497 c 0
 479 393 418 364 359 319 c 0
 288 265 254 235 217 186 c 1
 73 186 l 1
 138 309 239 363 269 388 c 0
 313 424 360 438 361 500 c 0
 361 501 361 501 361 502 c 0
 361 552 326 576 271 578 c 1
216 577 m 2
 216 577 216 577 216 577 c 2
 216 577 216 577 216 577 c 2
 216 577 l 2
EndSplineSet
EndChar

StartChar: period
Encoding: -1 46 33
Width: 250
VWidth: 0
Flags: HMW
LayerCount: 2
Back
Fore
SplineSet
50 53 m 0
 50 95 83 129 125 129 c 0
 167 129 200 95 200 53 c 0
 200 11 167 -22 125 -22 c 0
 83 -22 50 11 50 53 c 0
EndSplineSet
EndChar

StartChar: colon
Encoding: 58 58 34
Width: 250
VWidth: 0
Flags: HMW
LayerCount: 2
Back
Fore
SplineSet
50 70 m 0
 50 112 83 146 125 146 c 0
 167 146 200 112 200 70 c 0
 200 28 167 -5 125 -5 c 0
 83 -5 50 28 50 70 c 0
50 360 m 0
 50 402 83 436 125 436 c 0
 167 436 200 402 200 360 c 0
 200 318 167 285 125 285 c 0
 83 285 50 318 50 360 c 0
EndSplineSet
EndChar

StartChar: quotedbl
Encoding: -1 34 35
Width: 407
VWidth: 0
Flags: HMW
LayerCount: 2
Back
Fore
SplineSet
177 465 m 1
 50 465 l 1
 50 736 l 1
 177 736 l 1
 177 465 l 1
357 465 m 1
 230 465 l 1
 230 736 l 1
 357 736 l 1
 357 465 l 1
EndSplineSet
EndChar

StartChar: plus
Encoding: -1 43 36
Width: 475
VWidth: 0
Flags: HMW
LayerCount: 2
Back
Fore
SplineSet
425 357 m 1
 425 230 l 1
 300 230 l 1
 300 87 l 1
 173 87 l 1
 173 230 l 1
 50 230 l 1
 50 357 l 1
 173 357 l 1
 173 498 l 1
 300 498 l 1
 300 357 l 1
 425 357 l 1
EndSplineSet
EndChar

StartChar: asterisk
Encoding: -1 42 37
Width: 591
VWidth: 0
Flags: HMW
LayerCount: 2
Back
Fore
SplineSet
352 94 m 1
 234 94 l 1
 234 237 l 1
 119 157 l 1
 50 253 l 1
 195 353 l 1
 50 459 l 1
 120 554 l 1
 234 471 l 1
 234 605 l 1
 351 605 l 1
 351 467 l 1
 471 556 l 1
 540 461 l 1
 393 354 l 1
 541 252 l 1
 472 156 l 1
 351 238 l 1
 352 94 l 1
EndSplineSet
EndChar

StartChar: comma
Encoding: -1 44 38
Width: 265
VWidth: 0
Flags: HMW
LayerCount: 2
Back
Fore
SplineSet
178 -23 m 1
 51 -23 l 1
 88 129 l 1
 215 129 l 1
 178 -23 l 1
EndSplineSet
EndChar

StartChar: copyright
Encoding: 169 169 39
Width: 859
VWidth: 0
Flags: HMW
LayerCount: 2
Back
SplineSet
402.913085938 1139.86328125 m 1
 402.602539062 1139.86328125 l 1025
453.774414062 1139.86328125 m 1
 453.463867188 1139.86328125 l 1025
EndSplineSet
Fore
SplineSet
412 44 m 1
 266 51 142 179 139 332 c 0
 139 334 139 337 139 339 c 0
 139 516 283 635 412 636 c 1
 412 726 l 1
 264 725 50 589 50 339 c 0
 50 335 50 331 50 327 c 0
 56 104 240 -43 412 -49 c 1
 412 44 l 1
447.215820312 476.221679688 m 1
 447.215820312 565.94140625 l 1
 505.755859375 565.94140625 564.931640625 506.764648438 564.931640625 445.680664062 c 1
 477.122070312 413.229492188 l 1
 477.122070312 432.317382812 l 2
 477.122070312 441.225585938 477.122070312 448.224609375 473.940429688 455.860351562 c 0
 467.578125 470.49609375 447.215820312 476.221679688 447.215820312 476.221679688 c 1
447.215820312 201.33984375 m 1
 447.215820312 201.33984375 467.578125 207.067382812 473.940429688 221.702148438 c 0
 477.122070312 229.337890625 477.122070312 236.336914062 477.122070312 245.245117188 c 2
 477.122070312 264.333984375 l 1
 564.931640625 231.883789062 l 1
 564.931640625 170.798828125 505.755859375 112.2578125 447.215820312 112.2578125 c 1
 447.215820312 201.33984375 l 1
412.219726562 565.94140625 m 1
 412.219726562 476.221679688 l 1
 382.950195312 475.5859375 376.586914062 450.134765625 376.586914062 446.952148438 c 1
 376.586914062 231.247070312 l 1
 376.586914062 228.064453125 382.950195312 202.61328125 412.219726562 202.61328125 c 1
 412.219726562 112.2578125 l 1
 321.229492188 112.2578125 286.869140625 193.068359375 286.869140625 231.247070312 c 1
 286.869140625 446.952148438 l 1
 286.869140625 485.130859375 321.229492188 565.94140625 412.219726562 565.94140625 c 1
447 44 m 1
 593 51 717 179 720 332 c 0
 720 334 720 337 720 339 c 0
 720 516 576 635 447 636 c 1
 447 726 l 1
 595 725 809 589 809 339 c 0
 809 335 809 331 809 327 c 0
 803 104 619 -43 447 -49 c 1
 447 44 l 1
EndSplineSet
EndChar

StartChar: registered
Encoding: 174 174 40
Width: 444
VWidth: 0
Flags: HMW
LayerCount: 2
Back
Fore
SplineSet
211 396 m 1
 212 354 l 1
 131 355 50 432 50 523 c 0
 50 524 50 524 50 525 c 0
 50 649 153 703 213 703 c 0
 214 703 214 703 215 703 c 1
 215 662 l 1
 156 662 90 609 90 526 c 0
 91 457 146 399 211 396 c 1
231 396 m 1
 296 399 352 456 354 525 c 0
 354 526 354 526 354 527 c 0
 354 608 290 662 231 662 c 1
 231 703 l 1
 297 702 394 641 394 528 c 0
 394 526 394 525 394 523 c 0
 394 423 308 357 231 354 c 1
 231 396 l 1
226 547 m 1
 230 547 l 2
 247 547 254 557 254 568 c 0
 254 582 244 591 230 591 c 2
 226 591 l 1
 226 628 l 1
 268 628 290 604 290 570 c 0
 290 551 284 538 271 530 c 1
 272 530 l 1
 282 522 289 506 290 492 c 2
 290 431 l 1
 255 431 l 1
 255 481 l 2
 255 504 246 511 226 511 c 1
 226 547 l 1
171 627 m 1
 210 627 l 1
 210 430 l 1
 171 430 l 1
 171 627 l 1
EndSplineSet
EndChar

StartChar: a
Encoding: 97 97 41
Width: 470
VWidth: 0
Flags: HMW
LayerCount: 2
Back
Fore
SplineSet
250 518 m 1
 347 518 395 424 395 381 c 1
 395 140 l 1
 395 136 396 108 420 108 c 1
 420 1 l 1
 384 1 357 13 337 31 c 1
 315 13 286 1 251 1 c 1
 251 107 l 1
 283 108 289 136 289 140 c 1
 289 224 l 1
 278 204 184 184 171 174 c 0
 163 168 162 160 162 148 c 0
 162 145 162 143 162 140 c 0
 162 133 170 108 202 108 c 1
 202 1 l 1
 101 1 50 98 50 140 c 0
 50 179 54 210 89 239 c 0
 118 263 270 297 289 336 c 1
 289 379 l 1
 289 383 282 411 250 411 c 1
 250 518 l 1
203 410 m 1
 203 410 180 408 173 391 c 0
 169 382 169 374 169 364 c 2
 169 342 l 1
 69 380 l 1
 69 449 136 516 203 516 c 1
 203 410 l 1
EndSplineSet
EndChar

StartChar: period
Encoding: 46 46 42
Width: 350
VWidth: 0
Flags: HMW
LayerCount: 2
Back
Fore
SplineSet
100 53 m 0
 100 95 133 129 175 129 c 0
 217 129 250 95 250 53 c 0
 250 11 217 -22 175 -22 c 0
 133 -22 100 11 100 53 c 0
EndSplineSet
EndChar

StartChar: o
Encoding: 111 111 43
Width: 452
VWidth: 0
Flags: W
HStem: -1 112<166.429 205.537 250.661 288.683> 404 112<166.732 205.537 250.661 288.384>
VStem: 50 114<115.693 398.9> 291 111<112.709 401.178>
LayerCount: 2
Back
Fore
SplineSet
202.913472936 516 m 0
 205.53694192 516 l 1
 205.53694192 404 l 1
 202.913472936 404 l 0
 170.310546875 404 164 378.0390625 164 374.995117188 c 0
 164 140.004882812 l 0
 164 137.138671875 171.319335938 111 202.913472936 111 c 0
 205.53694192 111 l 1
 205.53694192 -1 l 1
 202.913472936 -1 l 0
 98.7236328125 -1 50 96.4228515625 50 139.14453125 c 0
 50 377.8359375 l 0
 50 421.602539062 99.77734375 516 202.913472936 516 c 0
250.660608455 516 m 1
 253.28407744 516 l 2
 353.279296875 516 402 421.546875 402 377.8359375 c 0
 402 139.14453125 l 0
 402 95.4853515625 354.321289062 -1 253.28407744 -1 c 0
 250.660608455 -1 l 1
 250.660608455 108.5703125 l 1
 253.202094034 108.645507812 l 0
 284.618164062 109.577148438 291 135.692382812 291 138.774414062 c 0
 291 374.859375 l 0
 291 377.8671875 284.609375 404 253.28407744 404 c 0
 250.660608455 404 l 1
 250.660608455 516 l 1
EndSplineSet
EndChar

StartChar: quotedbl
Encoding: 34 34 44
Width: 507
VWidth: 0
Flags: HMW
LayerCount: 2
Back
Fore
SplineSet
227 465 m 1
 100 465 l 1
 100 736 l 1
 227 736 l 1
 227 465 l 1
407 465 m 1
 280 465 l 1
 280 736 l 1
 407 736 l 1
 407 465 l 1
EndSplineSet
EndChar

StartChar: plus
Encoding: 43 43 45
Width: 575
VWidth: 0
Flags: HMW
LayerCount: 2
Back
Fore
SplineSet
475 357 m 1
 475 230 l 1
 350 230 l 1
 350 87 l 1
 223 87 l 1
 223 230 l 1
 100 230 l 1
 100 357 l 1
 223 357 l 1
 223 498 l 1
 350 498 l 1
 350 357 l 1
 475 357 l 1
EndSplineSet
EndChar

StartChar: asterisk
Encoding: 42 42 46
Width: 690
VWidth: 0
Flags: HMW
LayerCount: 2
Back
Fore
SplineSet
402 94 m 1
 284 94 l 1
 284 237 l 1
 170 159 l 1
 101 253 l 1
 245 354 l 1
 100 459 l 1
 170 554 l 1
 284 471 l 1
 284 605 l 1
 401 605 l 1
 401 467 l 1
 521 556 l 1
 590 461 l 1
 443 354 l 1
 589 251 l 1
 520 155 l 1
 401 238 l 1
 402 94 l 1
EndSplineSet
EndChar

StartChar: comma
Encoding: 44 44 47
Width: 364
VWidth: 0
Flags: HMW
LayerCount: 2
Back
Fore
SplineSet
227 -23 m 1
 100 -23 l 1
 137 129 l 1
 264 129 l 1
 227 -23 l 1
EndSplineSet
EndChar

StartChar: r
Encoding: 114 114 48
Width: 346
VWidth: 0
Flags: W
HStem: 0 21G<50 172> 0 21G<50 172> 404 112<234.424 299.5>
VStem: 50 122<0 340.62 447.166 516>
LayerCount: 2
Back
Fore
SplineSet
172 516 m 1xb0
 172 447.166015625 l 1
 187.692382812 473.516601562 239.090820312 516 299.5 516 c 0
 302 516 l 1
 302 402 l 1
 299.5 404 l 0
 230.6015625 404 172 333.583007812 172 271.14453125 c 4
 172 0 l 1
 50 0 l 1
 50 516 l 1
 172 516 l 1xb0
EndSplineSet
EndChar

StartChar: f
Encoding: 102 102 49
Width: 339
VWidth: 0
Flags: W
HStem: 0 21G<113 229> 0 21G<113 229> 406 110<50 113 229 295> 585 111<232.258 295>
VStem: 113 116<0 406 516 581.72>
LayerCount: 2
Back
Fore
SplineSet
263.487304688 696 m 2xb8
 295 696 l 1
 295 585 l 1
 264.5390625 585 l 2
 234.409179688 584.05859375 229 558.663085938 229 555.5 c 2
 229 515.041992188 l 1
 295 516.041992188 l 1
 295 406 l 1
 229 406 l 1
 229 0 l 1
 113 0 l 1
 113 406 l 1
 50 406 l 1
 50 516 l 1
 113 516 l 1
 113 555.5 l 2
 113 598.68359375 162.736328125 694.982421875 263.487304688 696 c 2xb8
EndSplineSet
EndChar

StartChar: g
Encoding: 103 103 50
Width: 442
VWidth: 0
Flags: HMW
LayerCount: 2
Back
Fore
SplineSet
68 -181 m 1
 68 -75 l 1
 242 -75 l 1
 274 -74 281 -47 281 -43 c 2
 281 4 l 1
 269 1 256 -1 242 -1 c 1
 242 105 l 1
 274 106 281 134 281 138 c 1
 281 377 l 2
 281 381 274 409 242 409 c 1
 242 516 l 1
 256 516 269 514 281 510 c 1
 281 516 l 1
 392 516 l 1
 392 -43 l 2
 392 -85 343 -180 244 -181 c 1
 68 -181 l 1
199 516 m 1
 199 409 l 1
 166 409 159 381 159 377 c 1
 159 138 l 1
 159 134 167 106 199 106 c 1
 199 -1 l 1
 98 -1 50 96 50 138 c 2
 50 379 l 1
 51 422 99 516 199 516 c 1
EndSplineSet
EndChar

StartChar: i
Encoding: 105 105 51
Width: 233
VWidth: 0
Flags: W
HStem: 0 21G<59 175> 0 21G<59 175> 496 20G<59 175> 563.675 139.65<66.0844 166.916>
VStem: 46.6748 139.65<583.084 683.916> 59 116<0 516>
LayerCount: 2
Back
Fore
SplineSet
116.5 563.674804688 m 4x38
 78.291015625 563.674804688 46.6748046875 595.291015625 46.6748046875 633.5 c 4
 46.6748046875 671.708984375 78.291015625 703.325195312 116.5 703.325195312 c 4
 154.708984375 703.325195312 186.325195312 671.708984375 186.325195312 633.5 c 4
 186.325195312 595.291015625 154.708984375 563.674804688 116.5 563.674804688 c 4x38
59 0 m 1xb4
 59 516 l 1
 175 516 l 1
 175 0 l 1
 59 0 l 1xb4
EndSplineSet
EndChar

StartChar: e
Encoding: 101 101 52
Width: 451
VWidth: 0
Flags: W
HStem: 0 103.696<162.899 197 245 284.231> 210.5 110<157 292> 406.401 109.599<162.485 196 245 286.991>
VStem: 41 116<108.243 210.5 320.5 401.506> 292 108<127.882 139.225 320.5 402.496>
LayerCount: 2
Back
Fore
SplineSet
245 406.624023438 m 1
 245 516 l 1
 247.5 516 l 0
 315.94921875 516 400 450.5 400 379.616210938 c 0
 400 210.5 l 1
 157 210.5 l 1
 157 139.838867188 l 0
 157 135.85546875 164.372070312 104.62890625 194.578125 103.696289062 c 0
 197 103.62109375 l 1
 197 0 l 1
 194.5 0 l 0
 92.7060546875 0 41 96.46484375 41 140.141601562 c 0
 41 377.8671875 l 1
 42.025390625 421.544921875 93.70703125 516 193.5 516 c 0
 196 516 l 1
 196 406.401367188 l 1
 164.830078125 406.401367188 157 383.092773438 157 370.286132812 c 2
 157 320.5 l 1
 292 320.5 l 1
 292 369.438476562 l 2
 292 398.969726562 265.565429688 407.137695312 245 406.624023438 c 1
245 104.875 m 1
 247.372070312 104.997070312 l 2
 247.489257812 105.002929688 278.916015625 112.219726562 285.201171875 127.483398438 c 1
 288.9921875 136.01171875 289 143.44140625 289 153.5 c 0
 289 179.124023438 l 1
 397 139.224609375 l 1
 396.116210938 46.064453125 293.683961549 0 247.5 0 c 2
 245 0 l 1
 245 104.875 l 1
EndSplineSet
EndChar

StartChar: d
Encoding: 100 100 53
Width: 432
VWidth: 0
Flags: W
HStem: 0 112<161.061 218> 404 112<160.651 218> 678 20G<266 386>
VStem: 44 112<116.381 401.629> 266 120<0 698>
LayerCount: 2
Back
Fore
SplineSet
218 516 m 1
 218 404 l 1
 190.540039062 404 l 5
 161.4609375 403.078125 156 378.13671875 156 374.997070312 c 4
 156 141.002929688 l 4
 156 138.009765625 162.390625 112 192.5 112 c 4
 218 112 l 1
 218 0 l 1
 192.5 0 l 4
 90.689453125 0 44 96.4931640625 44 140.141601562 c 4
 44 377.8671875 l 5
 45.0244140625 422.510742188 91.7041015625 516 191.5 516 c 4
 218 516 l 1
266 0 m 1
 266 698 l 1
 386 698 l 1
 386 0 l 1
 266 0 l 1
EndSplineSet
EndChar

StartChar: h
Encoding: 104 104 54
Width: 444
VWidth: 0
Flags: HMW
LayerCount: 2
Back
SplineSet
50 0 m 5xb0
 50 698 l 5
 166 698 l 5
 166 0 l 5
 50 0 l 5xb0
EndSplineSet
Fore
SplineSet
50 1.1845703125 m 1
 159 1.1845703125 l 1
 159 366.341796875 l 4
 159 373.3046875 173.3828125 400.727539062 205.37890625 403.556640625 c 5
 205.37890625 511.147460938 l 1
 192.063476562 510.748046875 175.908203125 509.044921875 165.208007812 506.176757812 c 0
 158.776367188 504.446289062 l 1
 158.776367188 698 l 1
 50 698 l 1
 50 1.1845703125 l 1
254 511 m 1
 254 403.420898438 l 5
 288.026367188 400.4140625 295.37890625 371.749023438 295.37890625 366.204101562 c 4
 295.37890625 1.046875 l 1
 403.37890625 1.046875 l 1
 403.37890625 375.204101562 l 0
 403.37890625 443.896484375 348.021484375 507.426757812 254 511 c 1
EndSplineSet
EndChar

StartChar: j
Encoding: 106 106 55
Width: 232
VWidth: 0
Flags: W
HStem: -181 111<-2 52.2141> 496 20G<58 174> 561.675 139.65<65.0844 165.916>
VStem: 45.6748 139.65<581.084 681.916> 58 116<-65.1129 516>
LayerCount: 2
Back
Fore
SplineSet
25.5 -181 m 0xe8
 -2 -181 l 1
 -2 -70 l 1
 22.4609375 -70 l 1
 52.5908203125 -69.05859375 58 -43.6630859375 58 -40.5 c 0
 58 516 l 1
 174 516 l 1
 174 -40.5 l 0
 174 -86.630859375 125.259765625 -181 25.5 -181 c 0xe8
115.5 561.674804688 m 4
 77.291015625 561.674804688 45.6748046875 593.291015625 45.6748046875 631.5 c 4
 45.6748046875 669.708984375 77.291015625 701.325195312 115.5 701.325195312 c 4
 153.708984375 701.325195312 185.325195312 669.708984375 185.325195312 631.5 c 4xf0
 185.325195312 593.291015625 153.708984375 561.674804688 115.5 561.674804688 c 4
EndSplineSet
EndChar

StartChar: l
Encoding: 108 108 56
Width: 217
VWidth: 0
Flags: W
HStem: 0 21G<50 175> 0 21G<50 175> 678 20G<50 175>
VStem: 50 125<0 698>
LayerCount: 2
Back
Fore
SplineSet
50 0 m 1xb0
 50 698 l 1
 175 698 l 1
 175 0 l 1
 50 0 l 1xb0
EndSplineSet
EndChar

StartChar: hyphen
Encoding: -1 45 57
Width: 416
VWidth: 0
Flags: HMW
LayerCount: 2
Back
Fore
SplineSet
366 357 m 1
 366 230 l 1
 50 230 l 1
 50 357 l 1
 366 357 l 1
EndSplineSet
EndChar

StartChar: slash
Encoding: -1 47 58
Width: 401
VWidth: 0
Flags: HMW
LayerCount: 2
Back
Fore
SplineSet
50 -23 m 1
 225 716 l 1
 351 716 l 1
 177 -23 l 1
 50 -23 l 1
EndSplineSet
EndChar

StartChar: u
Encoding: 117 117 59
Width: 454
VWidth: 0
Flags: W
HStem: -3 115<169.958 201.838 249.541 284.185> 496 20G<50 164 290 408>
VStem: 50 114<115.069 516> 290 118<115.997 516>
LayerCount: 2
Back
Refer: 12 85 S 0.731558 0 0 0.730289 -7.5779 5.47717 2
Refer: 12 85 N 0.731558 0 0 0.730289 -7.5779 5.47717 2
Refer: 12 85 N 0.731558 0 0 0.730289 -7.5779 5.47717 2
Fore
SplineSet
252.162109375 112 m 0
 283.640625 112 290 138.046875 290 141.141601562 c 2
 290 516 l 1
 408 516 l 5
 408 137.149414062 l 4
 408 93.4423828125 355.27734375 -3 252.162340178 -3 c 0
 249.541263076 -3 l 1
 249.541015625 112 l 1
 252.162109375 112 l 0
164 516 m 1
 164 141.141601562 l 2
 164 138.133789062 170.390625 112 201.837890625 112 c 0
 204.458736924 109 l 1
 204.458736924 -3 l 1
 201.837659822 -3 l 0
 98.7607421875 -3 50 90.4658203125 50 137.149414062 c 0
 50 516 l 1
 164 516 l 1
EndSplineSet
EndChar

StartChar: m
Encoding: 109 109 60
Width: 691
VWidth: 0
Flags: W
HStem: 0 21G<45 164 290 408 532 647> 0 21G<45 164 290 408 532 647> 407.146 111.854<167.516 204.611 249.389 286.614 411.005 446.555 491.361 523.822>
VStem: 45 159.611<407.146 508> 45 119<0 403.133 508 519> 290 118<0 403.654> 532 115<0 401.892>
LayerCount: 2
Back
Fore
SplineSet
446.5546875 519 m 1xa6
 446.5546875 408.068359375 l 1
 420.312797727 408.068359375 408 388.861581385 408 375.831054688 c 2
 408 0 l 1
 290 0 l 1
 290 371.877929688 l 2
 290 387.064405545 278.469919148 407.161835757 249.388671875 407.157226562 c 1
 249.388671875 519 l 1
 292.463470653 519 324.420259383 507.355544033 348.547851562 486.764648438 c 1
 372.776997842 506.215161824 406.613624426 519 446.5546875 519 c 1xa6
164 0 m 1xae
 45 0 l 1
 45 519 l 1
 164.124023438 519 l 1
 164 508 l 1xae
 171.658168411 513.728906399 188.759088377 519 204.611328125 519 c 1
 204.611328125 407.146484375 l 1xb6
 172.023544978 407.174656605 164 378.640728644 164 373.859375 c 2
 164 0 l 1xae
532 0 m 1
 532 370.850585938 l 2
 532 375.733107021 524.250874473 408.068359375 491.361328125 408.068359375 c 1
 491.361328125 519 l 1
 596.182410922 519 647 438.127929688 647 378.850585938 c 2
 647 0 l 1
 532 0 l 1
EndSplineSet
EndChar

StartChar: six
Encoding: 54 54 61
Width: 536
VWidth: 0
Flags: HMW
LayerCount: 2
Back
Fore
SplineSet
302 415 m 1
 429 415 486 328 486 210 c 0
 486 76 394 2 302 1 c 1
 302 125 l 1
 343 130 370 173 370 209 c 0
 370 263 338 299 303 299 c 1
 302 415 l 1
375 537 m 1
 359 559 340 573 313 573 c 0
 309 573 306 572 302 572 c 1
 302 698 l 1
 380 698 435 659 470 600 c 1
 375 537 l 1
247 698 m 1
 247 573 l 1
 196 571 172 468 172 404 c 0
 172 403 172 401 172 400 c 1
 195 411 220 415 248 415 c 1
 248 297 l 1
 248 297 247 297 247 297 c 0
 218 297 182 268 182 210 c 0
 182 173 210 129 248 125 c 1
 248 0 l 1
 77 0 50 194 50 365 c 0
 50 482 102 698 247 698 c 1
EndSplineSet
Colour: ff0000
EndChar

StartChar: p
Encoding: 112 112 62
Width: 439
VWidth: 0
Flags: W
HStem: 0 112<217 280.175> 404 112<214.17 277.291>
VStem: 50 119<-182 516> 284 114<116.78 399.413>
LayerCount: 2
Back
Fore
SplineSet
217 0 m 1
 217 112 l 1
 244.640625 112 l 1
 278.5390625 112.921875 284 137.86328125 284 141.002929688 c 0
 284 374.997070312 l 0
 284 377.990234375 272.609375 404 240.840820312 404 c 0
 214.169921875 404 l 1
 214.169921875 516 l 1
 240.840820312 516 l 0
 344.27734375 516 398 419.5625 398 375.858398438 c 0
 398 138.1328125 l 1
 396.974609375 93.4345703125 348.263671875 0 243.5 0 c 0
 217 0 l 1
169 516 m 1
 169 -182 l 1
 50 -182 l 1
 50 516 l 1
 169 516 l 1
EndSplineSet
EndChar

StartChar: b
Encoding: 98 98 63
Width: 433
VWidth: 0
Flags: W
HStem: 0 112<217 277.968> 404 112<217 278.378> 679 20G<50 169> 679 20G<50 169>
VStem: 50 119<0 699> 284 112<116.371 399.212>
LayerCount: 2
Back
Fore
SplineSet
50 699 m 1xec
 169 699 l 1
 169 0 l 1
 50 0 l 1
 50 699 l 1xec
248.459960938 404 m 1
 217 404 l 1
 217 516 l 1
 247.5 516 l 0
 347.280273438 516 394.974609375 422.538085938 396 377.8671875 c 1
 396 140.141601562 l 0
 396 96.46484375 348.293945312 0 246.5 0 c 0
 217 0 l 1
 217 112 l 1
 246.5 112 l 0
 276.640625 112 284 137.922851562 284 141.002929688 c 0
 284 374.997070312 l 0
 284 378.081054688 277.522460938 403.078125 248.459960938 404 c 1
EndSplineSet
EndChar

StartChar: c
Encoding: 99 99 64
Width: 445
VWidth: 0
Flags: W
HStem: -1 21G<152.103 208 254.637 292.169> -1 21G<152.103 208 254.637 292.169> 496 20G<150.329 203.593 250.087 287.347>
VStem: 51 113<113.7 401.506>
LayerCount: 2
Back
Fore
SplineSet
252.479553721 405.010742188 m 0x30
 250.086582049 405.225585938 l 1
 250.086582049 516 l 1
 252.72824116 516 l 0
 321.965820312 516 390 448.9609375 390 378.5 c 0
 390 376.775390625 l 1
 285 336.875976562 l 1
 285 362.5 l 0
 285 372.565429688 285.015625 378.935546875 281.201171875 387.516601562 c 1
 274.887695312 402.849609375 252.576552141 405.001953125 252.479553721 405.010742188 c 0x30
254.636671177 109.774414062 m 1
 257.092849422 109.989257812 l 2
 257.191350748 109.997070312 279.887695312 112.150390625 286.201171875 127.483398438 c 1
 289.9921875 136.01171875 290 143.44140625 290 153.5 c 0
 290 179.124023438 l 1
 395 139.224609375 l 1
 395 137.5 l 0
 395 67.056640625 326.990234375 -1 257.348105548 -1 c 0
 254.636671177 -1 l 1xb0
 254.636671177 109.774414062 l 1
200.951722575 516 m 0
 203.593381686 516 l 1
 203.593381686 405.075195312 l 1
 200.951722575 405.075195312 l 0
 169.422851562 405.075195312 164 379.083007812 164 375.858398438 c 0
 164 140.141601562 l 0
 164 136.149414062 170.372070312 110.868164062 205.578125 109.93359375 c 0
 208 109.858398438 l 1
 208 0 l 1
 205.5 0 l 0
 98.7060546875 0 51 96.46484375 51 140.141601562 c 0
 51 377.8671875 l 1
 52.025390625 421.544921875 99.70703125 516 200.951722575 516 c 0
EndSplineSet
EndChar

StartChar: q
Encoding: 113 113 65
Width: 440
VWidth: 0
Flags: W
HStem: 0 112<167.825 231> 404 112<165.934 228.83>
VStem: 50 114<116.78 399.638> 274 118<-182 516>
LayerCount: 2
Back
Fore
SplineSet
203.359375 112 m 1
 231 112 l 1
 231 0 l 1
 204.5 0 l 0
 99.736328125 0 51.025390625 93.435546875 50 138.1328125 c 1
 50 375.858398438 l 0
 50 419.5625 98.72265625 516 202.159179688 516 c 0
 228.830078125 516 l 1
 228.830078125 404 l 1
 202.159179688 404 l 0
 170.359375 404 164 378.077148438 164 374.997070312 c 0
 164 141.002929688 l 0
 164 137.918945312 169.477539062 112.921875 203.359375 112 c 1
392 -182 m 1
 274 -182 l 1
 274 516 l 1
 392 516 l 1
 392 -182 l 1
EndSplineSet
EndChar

StartChar: t
Encoding: 116 116 66
Width: 339
VWidth: 0
Flags: W
HStem: 0 119<232.258 289> 404 112<50 113 229 289>
VStem: 113 116<122.106 404 516 642>
LayerCount: 2
Back
Fore
SplineSet
289 119 m 1
 289 0 l 1
 263.487304688 0 l 1
 162.736328125 1.017578125 113 97.3173828125 113 140.5 c 0
 113 404 l 5
 229 404 l 5
 229 148.5 l 0
 229 145.40234375 234.432617188 119.940429688 264.5390625 119 c 1
 289 119 l 1
289 404 m 1
 50 404 l 1
 50 516 l 1
 113 516 l 1
 113 642 l 1
 229 642 l 1
 229 516 l 1
 289 516 l 1
 289 404 l 1
EndSplineSet
EndChar

StartChar: v
Encoding: 118 118 67
Width: 455
VWidth: 0
Flags: W
HStem: 0 21G<187.175 264.102> 0 21G<187.175 264.102> 496 20G<43 177.181 283.118 413>
LayerCount: 2
Back
Fore
SplineSet
43 515 m 1xa0
 171 516 l 1
 294 118 l 1
 258 0 l 1
 193 0 l 1
 43 515 l 1xa0
413 515 m 1
 328 232 l 1
 303 232 l 1
 254 397 l 1
 289 516 l 1
 413 515 l 1
EndSplineSet
EndChar

StartChar: w
Encoding: 119 119 68
Width: 627
VWidth: 0
Flags: W
HStem: 0 21G<179.175 249.102 361.175 433.102> 0 21G<179.175 249.102 361.175 433.102> 496 20G<35 170.729 217 349.98 456.118 582>
LayerCount: 2
Back
Fore
SplineSet
35 515 m 1xa0
 165 516 l 1
 279 118 l 1
 243 0 l 1
 185 0 l 1
 35 515 l 1xa0
217 515 m 1
 344 516 l 1
 463 118 l 1
 427 0 l 1
 367 0 l 1
 217 515 l 1
582 515 m 1
 497 232 l 1
 476 232 l 1
 427 397 l 1
 462 516 l 1
 582 515 l 1
EndSplineSet
EndChar

StartChar: x
Encoding: 120 120 69
Width: 435
VWidth: 0
Flags: W
HStem: 0 21G<47 173.55 268.45 396> 0 21G<47 173.55 268.45 396> 496 19G<51 177.525 264.405 392>
LayerCount: 2
Back
Fore
SplineSet
51 516 m 1xa0
 169 516 l 1
 221 394 l 1
 273 515 l 1
 392 515 l 1
 284 262 l 1
 396 0 l 1
 277 0 l 1
 221 131 l 1
 165 0 l 1
 47 0 l 1
 160 262 l 1
 51 516 l 1xa0
EndSplineSet
EndChar

StartChar: hyphen
Encoding: 45 45 70
Width: 516
VWidth: 0
Flags: HMW
LayerCount: 2
Back
Fore
SplineSet
416 357 m 1
 416 230 l 1
 100 230 l 1
 100 357 l 1
 416 357 l 1
EndSplineSet
EndChar

StartChar: slash
Encoding: 47 47 71
Width: 501
VWidth: 0
Flags: HMW
LayerCount: 2
Back
Fore
SplineSet
100 -23 m 1
 275 716 l 1
 401 716 l 1
 227 -23 l 1
 100 -23 l 1
EndSplineSet
EndChar

StartChar: three
Encoding: -1 51 72
Width: 574
VWidth: 0
Flags: HMW
LayerCount: 2
Back
Fore
SplineSet
167 537 m 1
 61 600 l 1
 94 656 152 698 230 698 c 1
 230 572 l 1
 201 570 181 558 167 537 c 1
289 122 m 1
 332 122 364 161 364 201 c 0
 364 251 332 286 288 286 c 1
 288 410 l 1
 341 416 364 448 364 499 c 0
 364 553 321 574 291 574 c 0
 290 574 288 574 287 574 c 1
 287 698 l 1
 421 695 488 582 488 508 c 0
 488 403 440 353 426 350 c 1
 454 331 489 274 489 199 c 0
 489 75 372 -0 292 -0 c 0
 291 -0 291 -0 290 0 c 1
 289 122 l 1
167 160 m 1
 181 139 201 127 230 125 c 1
 230 -1 l 1
 152 -1 94 41 61 97 c 1
 167 160 l 1
EndSplineSet
Validated: 1
EndChar

StartChar: five
Encoding: 53 53 73
Width: 529
VWidth: 0
Flags: HMW
LayerCount: 2
Back
Fore
SplineSet
430 574 m 1
 192 573 l 1
 180 408 l 1
 193 411 206 413 223 413 c 1
 223 287 l 1
 197 286 173 272 161 252 c 1
 50 318 l 1
 76 700 l 1
 430 700 l 1
 430 574 l 1
281 414 m 1
 430 411 479 275 479 210 c 0
 479 86 385 0 280 -2 c 1
 280 125 l 1
 325 128 354 161 354 202 c 0
 354 258 318 279 281 286 c 1
 281 414 l 1
160 160 m 1
 174 139 194 127 223 125 c 1
 223 -1 l 1
 145 -1 87 41 54 97 c 1
 160 160 l 1
EndSplineSet
EndChar

StartChar: seven
Encoding: 55 55 74
Width: 437
VWidth: 0
Flags: HMW
LayerCount: 2
Back
Fore
SplineSet
50 698 m 1
 387 698 l 1
 387 573 l 1
 366 510 l 1
 234 510 l 1
 254 572 l 1
 50 572 l 1
 50 698 l 1
218 450 m 1
 349 450 l 1
 325 358 316 310 305 224 c 0
 294 137 292 87 286 0 c 1
 159 0 l 1
 166 112 169 177 185 288 c 0
 193 342 202 387 218 450 c 1
EndSplineSet
EndChar

StartChar: eight
Encoding: 56 56 75
Width: 534
VWidth: 0
Flags: HMW
LayerCount: 2
Back
Fore
SplineSet
298 125 m 1
 331 134 356 165 356 201 c 0
 356 251 329 274 297 283 c 1
 297 413 l 1
 333 424 353 446 353 497 c 0
 353 551 314 568 296 571 c 1
 296 698 l 1
 366 698 476 619 476 499 c 0
 476 415 433 352 419 349 c 1
 447 330 484 269 484 199 c 0
 484 53 340 0 300 0 c 0
 300 0 299 0 299 0 c 1
 298 125 l 1
236 125 m 1
 235 0 l 1
 235 0 234 0 234 0 c 0
 194 0 50 53 50 199 c 0
 50 269 87 330 115 349 c 1
 101 352 57 415 57 499 c 0
 57 619 168 698 238 698 c 1
 238 571 l 1
 220 568 181 551 181 497 c 0
 181 446 201 424 237 413 c 1
 237 283 l 1
 205 274 178 251 178 201 c 0
 178 165 203 134 236 125 c 1
EndSplineSet
EndChar

StartChar: nine
Encoding: 57 57 76
Width: 539
VWidth: 0
Flags: HMW
LayerCount: 2
Back
Fore
SplineSet
234 284 m 1
 107 284 50 371 50 489 c 0
 50 623 142 697 234 698 c 1
 234 574 l 1
 193 569 166 526 166 490 c 0
 166 436 198 400 233 400 c 1
 234 284 l 1
161 162 m 1
 179 140 196 120 234 119 c 1
 234 1 l 1
 161 1 107 37 77 100 c 1
 161 162 l 1
289 1 m 1
 289 119 l 1
 342 121 364 215 364 283 c 0
 364 288 364 294 364 299 c 1
 341 288 316 284 288 284 c 1
 288 402 l 1
 288 402 289 402 289 402 c 0
 318 402 354 431 354 489 c 0
 354 526 321 570 288 574 c 1
 288 699 l 1
 462 699 489 512 489 334 c 0
 489 160 422 1 289 1 c 1
EndSplineSet
Colour: ff0000
EndChar

StartChar: zero
Encoding: -1 48 77
Width: 1024
VWidth: 0
Flags: HM
LayerCount: 2
Back
Fore
SplineSet
404 698 m 1
 404 573 l 1
 351 560 346 461 346 398 c 0
 346 371 346 360 346 339 c 0
 346 248 348 137 403 124 c 1
 403 0 l 1
 337 3 221 60 221 353 c 0
 221 602 315 693 404 698 c 1
464 698 m 1
 553 693 647 602 647 353 c 0
 647 60 531 3 465 0 c 1
 465 124 l 1
 520 137 522 248 522 339 c 0
 522 360 522 371 522 398 c 0
 522 461 517 560 464 573 c 1
 464 698 l 1
EndSplineSet
Validated: 1
EndChar

StartChar: semicolon
Encoding: 59 59 78
Width: 289
VWidth: 0
Flags: HMW
LayerCount: 2
Back
Fore
SplineSet
90 360 m 0
 90 402 123 436 165 436 c 0
 207 436 240 402 240 360 c 0
 240 318 207 285 165 285 c 0
 123 285 90 318 90 360 c 0
176 -23 m 1
 49 -23 l 1
 86 129 l 1
 213 129 l 1
 176 -23 l 1
EndSplineSet
EndChar

StartChar: quotesingle
Encoding: -1 39 79
Width: 227
VWidth: 0
Flags: HMW
LayerCount: 2
Back
Fore
SplineSet
177 465 m 1
 50 465 l 1
 50 736 l 1
 177 736 l 1
 177 465 l 1
EndSplineSet
EndChar

StartChar: ampersand
Encoding: -1 38 80
Width: 760
VWidth: 0
Flags: HMW
LayerCount: 2
Back
Fore
SplineSet
307 576 m 1
 307 576 281 567 281 534 c 0
 281 499 301 493 307 487 c 1
 307 267 l 1
 283 295 l 1
 241 272 207 249 207 202 c 0
 207 158.1875 249.416015625 132.68359375 307 133 c 1
 307 1 l 1
 132.26171875 1 50 84.71484375 50 212 c 0
 50 304 131 368 201 402 c 1
 177 426 144 484 144 526 c 0
 144 619 203 679 307 700 c 1
 307 576 l 1
367 698 m 1
 473.975585938 679.00390625 527 615.7734375 527 518 c 0
 527 443 464 384 413 359 c 1
 481 278 l 1
 493 297 501 318 505 343 c 1
 644 343 l 1
 633.624023438 272.442382812 609.061523438 224.874023438 570 178 c 1
 713 0 l 1
 519 0 l 1
 467 70 l 1
 443 48 402 24 367 14 c 1
 367 166 l 1
 374 171 375 172 382 178 c 1
 367 196 l 1
 367 484 l 1
 378 493 394 502 394 531 c 0
 394 555 390 568 367 580 c 1
 367 698 l 1
EndSplineSet
EndChar

StartChar: dollar
Encoding: -1 36 81
Width: 544
VWidth: 0
Flags: HMW
LayerCount: 2
Back
Fore
SplineSet
308 757 m 1
 308 698 l 1
 349 692 383 680 416 646 c 0
 452 609 472 561 473 528 c 1
 337 502 l 1
 335 532 331 542 308 562 c 1
 308 425 l 1
 412 391 493 331 493 224 c 0
 493 123 425 19 308 0 c 1
 308 -53 l 1
 233 -53 l 1
 233 0 l 1
 183 11 145 24 105 64 c 0
 67 101 50 137 50 185 c 1
 183 214 l 1
 184 169 203 147 233 136 c 1
 233 312 l 1
 132 348 68 399 68 506 c 0
 68 605 141 684 232 699 c 1
 232 757 l 1
 308 757 l 1
EndSplineSet
EndChar

StartChar: greater
Encoding: 62 62 82
Width: 534
VWidth: 0
Flags: HMW
LayerCount: 2
Back
SplineSet
49.2939453125 579.12890625 m 1025,5,-1
EndSplineSet
Fore
SplineSet
50 500 m 1
 484 322 l 1
 484 258 l 1
 50 79 l 1
 50 186 l 1
 310 292 l 1
 50 400 l 1
 50 500 l 1
EndSplineSet
EndChar

StartChar: less
Encoding: 60 60 83
Width: 534
VWidth: 0
Flags: HMW
LayerCount: 2
Back
Fore
SplineSet
484 500 m 5
 484 400 l 5
 224 292 l 5
 484 186 l 5
 484 79 l 5
 50 258 l 5
 50 322 l 5
 484 500 l 5
EndSplineSet
EndChar

StartChar: parenleft
Encoding: -1 40 84
Width: 262
VWidth: 0
Flags: HMW
LayerCount: 2
Back
Fore
SplineSet
212 735 m 1
 213 648 l 1
 174 625 154 593 153 521 c 2
 153 208 l 2
 153 206 153 204 153 202 c 0
 153 104 178 73 213 51 c 1
 213 -37 l 1
 71 22 50 93 50 189 c 1
 50 510 l 1
 50 652 113 696 212 735 c 1
EndSplineSet
EndChar

StartChar: parenright
Encoding: -1 41 85
Width: 264
VWidth: 0
Flags: HMW
LayerCount: 2
Back
Fore
SplineSet
50 735 m 1
 149 696 211 652 213 510 c 1
 213 189 l 1
 212 93 192 22 50 -37 c 1
 50 51 l 1
 85 73 110 104 110 202 c 0
 110 204 110 206 110 208 c 2
 110 521 l 2
 109 593 89 625 50 648 c 1
 50 735 l 1
EndSplineSet
EndChar

StartChar: exclam
Encoding: -1 33 86
Width: 329
VWidth: 0
Flags: HMW
LayerCount: 2
Back
Fore
SplineSet
88 53 m 0
 88 95 121 129 163 129 c 0
 205 129 238 95 238 53 c 0
 238 11 205 -22 163 -22 c 0
 121 -22 88 11 88 53 c 0
100 166 m 1
 100 700 l 1
 229 700 l 1
 229 166 l 1
 100 166 l 1
EndSplineSet
EndChar

StartChar: three
Encoding: 51 51 87
Width: 529
VWidth: 0
Flags: HMW
LayerCount: 2
Back
Fore
SplineSet
158 537 m 1
 52 600 l 1
 85 656 143 698 221 698 c 1
 221 572 l 1
 192 570 172 558 158 537 c 1
280 122 m 1
 323 122 355 161 355 201 c 0
 355 251 323 286 279 286 c 1
 279 410 l 1
 332 416 355 448 355 499 c 0
 355 553 312 574 282 574 c 0
 281 574 279 574 278 574 c 1
 278 698 l 1
 412 695 479 582 479 508 c 0
 479 403 431 353 417 350 c 1
 445 331 480 274 480 199 c 0
 480 75 363 0 283 0 c 0
 282 0 282 0 281 0 c 1
 280 122 l 1
158 160 m 1
 172 139 192 127 221 125 c 1
 221 -1 l 1
 143 -1 85 41 52 97 c 1
 158 160 l 1
EndSplineSet
EndChar

StartChar: yen
Encoding: 165 165 88
Width: 542
VWidth: 0
Flags: HMW
LayerCount: 2
Back
Fore
SplineSet
210 698 m 1049,0,-1
73 698 m 1,1,-1
 210 698 l 1,2,-1
 273 485 l 1,3,-1
 333 698 l 1,4,-1
 470 698 l 1,5,-1
 382 408 l 1,6,-1
 492 408 l 1,7,-1
 492 350 l 1,8,-1
 365 350 l 1,9,-1
 351 295 l 1,10,-1
 492 295 l 1,11,-1
 492 236 l 1,12,-1
 340 236 l 1,13,-1
 340 0 l 1,14,-1
 203 0 l 1,15,-1
 203 238 l 1,16,-1
 50 238 l 1,17,-1
 50 295 l 1,18,-1
 193 295 l 1,19,-1
 177 351 l 1,20,-1
 50 351 l 1,21,-1
 50 409 l 1,22,-1
 162 409 l 1,23,-1
 73 698 l 1,1,-1
EndSplineSet
EndChar

StartChar: EURO
Encoding: 256 8364 89
Width: 568
VWidth: 0
Flags: HMW
LayerCount: 2
Back
Fore
SplineSet
278 698 m 1
 278 558 l 1
 239 543 236 532 236 488 c 2
 236 436 l 1
 408 436 l 1
 408 376 l 1
 236 376 l 1
 236 317 l 1
 408 317 l 1
 408 258 l 1
 236 258 l 1
 236 202 l 2
 236 155 254 154 278 141 c 1
 278 2 l 1
 197 8 168 45 134 90 c 0
 113 118 101 149 99 182 c 2
 99 258 l 1
 50 258 l 1
 50 317 l 1
 99 317 l 1
 99 377 l 1
 50 377 l 1
 50 436 l 1
 99 436 l 1
 99 496 l 2
 99 540.463128728 106.398098612 575.843594285 134 613 c 0
 172 666 217 696 278 698 c 1
338 698 m 1
 387 697 426 675 464 636 c 0
 501 598 517 544 517 514 c 1
 380 463 l 1
 381 501 l 2
 381 535 366 549 338 558 c 1
 338 698 l 1
338 2 m 1
 338 142 l 1
 366 151 381 165 381 199 c 2
 380 237 l 1
 517 186 l 1
 517 156 501 102 464 64 c 0
 426 25 387 3 338 2 c 1
EndSplineSet
EndChar

StartChar: HKD
Encoding: 257 22291 90
Width: 831
VWidth: 0
Flags: HMW
LayerCount: 2
Back
Fore
SplineSet
596 757 m 1
 596 698 l 1
 637 692 671 680 704 646 c 0
 740 609 760 561 761 528 c 1
 625 502 l 1
 623 532 619 542 596 562 c 1
 596 425 l 1
 700 391 781 331 781 224 c 0
 781 123 713 19 596 0 c 1
 596 -53 l 1
 521 -53 l 1
 521 0 l 1
 471 11 433 24 393 64 c 0
 355 101 343 139 333 187 c 1
 472 214 l 1
 473 169 491 147 521 136 c 1
 521 312 l 1
 420 348 356 399 356 506 c 0
 356 605 429 684 520 699 c 1
 520 757 l 1
 596 757 l 1
100 614 m 1
 100 573 l 1
 91 573 l 1
 91 488 l 1
 49 488 l 1
 49 698 l 1
 91 698 l 1
 91 614 l 1
 100 614 l 1
282 698 m 1
 324 698 l 1
 298 611 l 1
 325 488 l 1
 283 488 l 1
 256 611 l 1
 282 698 l 1
197 698 m 1
 240 698 l 1
 240 488 l 1
 197 488 l 1
 197 698 l 1
125 698 m 1
 168 698 l 1
 168 488 l 1
 125 488 l 1
 125 573 l 1
 116 573 l 1
 116 614 l 1
 125 614 l 1
 125 698 l 1
EndSplineSet
EndChar

StartChar: NameMe.167
Encoding: 258 -1 91
Width: 693
VWidth: 0
Flags: HMW
LayerCount: 2
Back
Fore
SplineSet
458 757 m 1
 458 698 l 1
 499 692 533 680 566 646 c 0
 602 609 622 561 623 528 c 1
 487 502 l 1
 485 532 481 542 458 562 c 1
 458 425 l 1
 562 391 643 331 643 224 c 0
 643 123 575 19 458 0 c 1
 458 -53 l 1
 383 -53 l 1
 383 0 l 1
 333 11 295 24 255 64 c 0
 217 101 205 139 195 187 c 1
 334 214 l 1
 335 169 353 147 383 136 c 1
 383 312 l 1
 282 348 218 399 218 506 c 0
 218 605 291 684 382 699 c 1
 382 757 l 1
 458 757 l 1
108 698 m 1
 108 657 l 1
 101 656 96 648 96 641 c 0
 96 619 127 618 147 607 c 0
 166 596 183 584 183 552 c 0
 183 518 150 488 124 488 c 1
 124 527 l 1
 132 530 143 539 143 551 c 0
 143 575 111 578 93 587 c 0
 72 597 56 609 56 640 c 0
 56 684 92 698 108 698 c 1
124 698 m 1
 156 698 178 664 178 646 c 1
 137 638 l 1
 137 654 124 658 124 658 c 1
 124 698 l 1
108 488 m 1
 74 488 50 522 50 543 c 1
 91 551 l 1
 91 534 108 527 108 527 c 1
 108 488 l 1
EndSplineSet
EndChar

StartChar: zero
Encoding: 48 48 92
Width: 526
VWidth: 0
Flags: HMW
LayerCount: 2
Back
Fore
SplineSet
233 698 m 1
 233 573 l 1
 180 560 175 461 175 398 c 0
 175 371 175 360 175 339 c 0
 175 248 177 137 232 124 c 1
 232 0 l 1
 166 3 50 60 50 353 c 0
 50 602 144 693 233 698 c 1
293 698 m 1
 382 693 476 602 476 353 c 0
 476 60 360 3 294 0 c 1
 294 124 l 1
 349 137 351 248 351 339 c 0
 351 360 351 371 351 398 c 0
 351 461 346 560 293 573 c 1
 293 698 l 1
EndSplineSet
EndChar

StartChar: numbersign
Encoding: -1 35 93
Width: 788
VWidth: 0
Flags: HMW
LayerCount: 2
Back
Fore
SplineSet
285 22 m 1
 164 22 l 1
 191 176 l 1
 51 176 l 1
 76 297 l 1
 213 297 l 1
 231 404 l 1
 85 404 l 1
 107 525 l 1
 253 525 l 1
 280 682 l 1
 401 682 l 1
 373 524 l 1
 479 524 l 1
 506 682 l 1
 627 682 l 1
 599 524 l 1
 737 524 l 1
 718 403 l 1
 578 404 l 1
 559 296 l 1
 702 296 l 1
 684 175 l 1
 538 176 l 1
 511 22 l 1
 391 22 l 1
 417 176 l 1
 312 176 l 1
 285 22 l 1
457 404 m 1
 352 404 l 1
 333 297 l 1
 439 296 l 1
 457 404 l 1
EndSplineSet
EndChar

StartChar: quotesingle
Encoding: 39 39 94
Width: 327
VWidth: 0
Flags: HMW
LayerCount: 2
Back
Fore
SplineSet
227 465 m 1
 100 465 l 1
 100 736 l 1
 227 736 l 1
 227 465 l 1
EndSplineSet
EndChar

StartChar: ampersand
Encoding: 38 38 95
Width: 859
VWidth: 0
Flags: HMW
LayerCount: 2
Back
Fore
SplineSet
356 578 m 1
 356 578 330 569 330 536 c 0
 330 501 350 495 356 489 c 1
 356 269 l 1
 332 297 l 1
 290 274 256 251 256 204 c 0
 256 160.187155068 309.416449861 134.683289972 356 135 c 1
 356 3 l 1
 173.699701604 3 99 92.5232776712 99 214 c 0
 99 306 180 370 250 404 c 1
 223 424 193 486 193 528 c 0
 193 621 252 681 356 702 c 1
 356 578 l 1
416 700 m 1
 522.975390719 681.004369872 576 617.773337792 576 520 c 0
 576 445 516 383 462 361 c 1
 530 280 l 1
 542 299 550 320 554 345 c 1
 693 345 l 1
 682.623912329 274.442603834 658.061414431 226.873697317 619 180 c 1
 760 16 l 1
 563 16 l 1
 516 72 l 1
 492 50 451 26 416 16 c 1
 416 168 l 1
 423 173 424 174 431 180 c 1
 416 198 l 1
 416 486 l 1
 427 495 443 504 443 533 c 0
 443 557 439 570 416 582 c 1
 416 700 l 1
EndSplineSet
EndChar

StartChar: dollar
Encoding: 36 36 96
Width: 627
VWidth: 0
Flags: HMW
LayerCount: 2
Back
Fore
SplineSet
341 757 m 1
 341 698 l 1
 382 692 416 680 449 646 c 0
 485 609 505 561 506 528 c 1
 370 502 l 1
 368 532 364 542 341 562 c 1
 341 425 l 1
 445 391 526 331 526 224 c 0
 526 123 458 19 341 0 c 1
 341 -53 l 1
 266 -53 l 1
 266 0 l 1
 216 11 178 24 138 64 c 0
 100 101 88 139 78 187 c 1
 217 214 l 1
 218 169 236 147 266 136 c 1
 266 312 l 1
 165 348 101 399 101 506 c 0
 101 605 174 684 265 699 c 1
 265 757 l 1
 341 757 l 1
EndSplineSet
EndChar

StartChar: braceleft
Encoding: 123 123 97
Width: 326
VWidth: 0
Flags: HMW
LayerCount: 2
Back
Fore
SplineSet
276 735 m 1
 276 662 l 1
 208 662 209 618 208 496 c 2
 208 384 l 2
 208 384 208 384 208 383 c 0
 208 366 188 354 164 348 c 1
 189 340 208 325 208 304 c 2
 208 178 l 2
 208 177 l 0
 208 56 222 31 276 31 c 1
 276 -38 l 1
 270 -38 264 -38 258 -38 c 0
 169 -38 112 -31 112 192 c 2
 112 290 l 2
 112 322 86 329 50 348 c 1
 86 363 111 370 112 408 c 2
 112 504 l 2
 112 715 167 735 276 735 c 1
EndSplineSet
EndChar

StartChar: underscore
Encoding: 95 95 98
Width: 550
VWidth: 0
Flags: HMW
LayerCount: 2
Back
Fore
SplineSet
500 -205 m 1
 50 -205 l 1
 50 -98 l 1
 500 -98 l 1
 500 -205 l 1
EndSplineSet
EndChar

StartChar: parenleft
Encoding: 40 40 99
Width: 364
VWidth: 0
Flags: HMW
LayerCount: 2
Back
Fore
SplineSet
263 735 m 1
 264 648 l 1
 225 625 204 593 203 521 c 2
 203 208 l 2
 203 206 203 204 203 202 c 0
 203 104 228 73 263 51 c 1
 263 -37 l 1
 121 22 100 93 100 189 c 1
 100 510 l 1
 100 650 164 696 263 735 c 1
EndSplineSet
EndChar

StartChar: parenright
Encoding: 41 41 100
Width: 263
VWidth: 0
Flags: HMW
LayerCount: 2
Back
Fore
SplineSet
50 735 m 1
 149 696 205 652 213 510 c 1
 213 189 l 1
 204 93 192 22 50 -37 c 1
 50 51 l 1
 85 73 110 104 110 202 c 0
 110 204 110 206 110 208 c 2
 110 521 l 2
 109 593 89 625 50 648 c 1
 50 735 l 1
EndSplineSet
EndChar

StartChar: exclam
Encoding: 33 33 101
Width: 251
VWidth: 0
Flags: HMW
LayerCount: 2
Back
Fore
SplineSet
50 53 m 0
 50 95 83 129 125 129 c 0
 167 129 200 95 200 53 c 0
 200 11 167 -22 125 -22 c 0
 83 -22 50 11 50 53 c 0
62 166 m 1
 62 700 l 1
 191 700 l 1
 191 166 l 1
 62 166 l 1
EndSplineSet
EndChar

StartChar: Percent_sign
Encoding: 37 37 102
Width: 677
VWidth: 0
Flags: HMW
LayerCount: 2
Back
Fore
SplineSet
184 -23 m 1
 359 716 l 1
 485 716 l 1
 311 -23 l 1
 184 -23 l 1
50 575 m 0
 50 635 98 683 158 683 c 0
 218 683 266 635 266 575 c 0
 266 515 218 467 158 467 c 0
 98 467 50 515 50 575 c 0
411 117 m 0
 411 177 459 225 519 225 c 0
 579 225 627 177 627 117 c 0
 627 57 579 9 519 9 c 0
 459 9 411 57 411 117 c 0
EndSplineSet
EndChar

StartChar: numbersign
Encoding: 35 35 103
Width: 888
VWidth: 0
Flags: HMW
LayerCount: 2
Back
Fore
SplineSet
335 22 m 1
 214 22 l 1
 241 176 l 1
 101 176 l 1
 126 297 l 1
 263 297 l 1
 281 404 l 1
 135 404 l 1
 157 525 l 1
 303 525 l 1
 330 682 l 1
 451 682 l 1
 423 524 l 1
 529 524 l 1
 556 682 l 1
 677 682 l 1
 649 524 l 1
 787 524 l 1
 768 403 l 1
 628 404 l 1
 609 296 l 1
 752 296 l 1
 734 175 l 1
 588 176 l 1
 561 22 l 1
 441 22 l 1
 467 176 l 1
 362 176 l 1
 335 22 l 1
507 404 m 1
 402 404 l 1
 383 297 l 1
 489 296 l 1
 507 404 l 1
EndSplineSet
EndChar

StartChar: braceright
Encoding: 125 125 104
Width: 327
VWidth: 0
Flags: W
HStem: -38 69<50 99.8262> 662 73<50 101.412>
VStem: 118 96<50.4519 192 290 326.556 366.656 408 496 645.895>
LayerCount: 2
Back
Fore
SplineSet
50 735 m 1
 50 662 l 1
 118 662 117 618 118 496 c 2
 118 384 l 2
 118 384 118 384 118 383 c 0
 118 366 138 354 162 348 c 1
 137 340 118 325 118 304 c 2
 118 178 l 2
 118 177 l 0
 118 56 104 31 50 31 c 1
 50 -38 l 1
 56 -38 62 -38 68 -38 c 0
 157 -38 214 -31 214 192 c 2
 214 290 l 2
 214 322 240 329 276 348 c 1
 240 363 215 370 214 408 c 2
 214 504 l 2
 214 715 159 735 50 735 c 1
EndSplineSet
EndChar

StartChar: k
Encoding: 107 107 105
Width: 480
VWidth: 0
Flags: W
HStem: 0 21G<50 169 309.454 439.978> 0 21G<50 169 309.454 439.978> 494 20G<306.158 440.434> 678 20G<50 169>
VStem: 50 119<0 698>
LayerCount: 2
Back
Fore
SplineSet
50 0 m 1xb8
 50 698 l 1
 169 698 l 1
 169 0 l 1
 50 0 l 1xb8
209.883822286 299.08984375 m 1
 316.0363086 514 l 1
 440.43359375 514 l 5
 326.409179688 298.787109375 l 5
 439.977539062 0 l 5
 316.58984375 0 l 1
 209.883822286 299.08984375 l 1
EndSplineSet
EndChar

StartChar: n
Encoding: 110 110 106
Width: 444
VWidth: 0
Flags: W
HStem: 403.557 107.591<164.003 199.379 244 277.757>
LayerCount: 2
Back
Fore
SplineSet
44 1.1845703125 m 1
 158 1.1845703125 l 1
 158 362.341796875 l 4
 158 369.3046875 167.3828125 403.727539062 199.37890625 403.556640625 c 5
 199.37890625 511.147460938 l 1
 182.676527219 510.646450815 169.442382812 508.399414062 157.776367188 500.446289062 c 1
 157.776367188 511.5 l 1
 44 511.5 l 1
 44 1.1845703125 l 1
244 511 m 1
 244 403.420898438 l 5
 278.026367188 403.4140625 285.37890625 371.749023438 285.37890625 366.204101562 c 4
 285.37890625 1.046875 l 1
 401.37890625 1.046875 l 1
 401.37890625 375.204101562 l 0
 401.37890625 459.896484375 338.021484375 507.426757812 244 511 c 1
EndSplineSet
EndChar

StartChar: s
Encoding: 115 115 107
Width: 451
VWidth: 0
Flags: HW
HStem: -0.851562 110.488<159.122 199.089 245 286.951> 407.602 109.031<154.967 198.305 243.277 245.67>
VStem: 49.1914 101.018<118.342 135.839 336.248 402.572> 294.353 108.452<117.599 187.965 379.236 396.403>
LayerCount: 2
Back
Refer: 19 83 N 0.7372 0 0 0.7372 20.0751 -3.89952 2
Fore
SplineSet
196.426887466 -0.8359375 m 0
 188.891549695 -0.8515625 l 2
 106.12109375 -0.943359375 49.12890625 81.4501953125 49.19140625 133.752929688 c 0
 49.1943359375 135.838867188 l 1
 150.166015625 155.19921875 l 1
 150.208984375 152.25 l 0
 150.504882812 132.013671875 174.457854146 109.571289062 196.418547302 109.63671875 c 0
 199.08948468 109.64453125 l 1
 199.095739803 107.142578125 l 0
 199.181226479 72.1123046875 199.095739803 36.6826171875 199.095739803 1.6640625 c 0
 199.095739803 -0.8359375 l 1
 196.426887466 -0.8359375 l 0
398.749023438 381.34765625 m 0
 398.747070312 379.236328125 l 1
 291.735351562 361.204101562 l 1
 291.731445312 364.157226562 l 0
 291.686523438 399.612304688 253.656396816 405.936523438 245.670414449 406.57421875 c 0
 243.276965257 406.765625 l 1
 243.276965257 517 l 1
 245.887629906 517 l 0
 334.936523438 517 398.817382812 445.111328125 398.749023438 381.34765625 c 0
198.373533304 407.514648438 m 1
 195.67414685 407.6015625 l 2
 168.567085514 408.47265625 150.243164062 393.151367188 150.61328125 362.078125 c 0
 151.033203125 326.80078125 246.335318101 310.452148438 308.216796875 283.047851562 c 0
 349.4453125 264.307617188 402.8046875 233.879882812 402.8046875 158.874023438 c 0
 402.8046875 58.205078125 335.182617188 -0.8359375 247.5 -0.8359375 c 0
 245 -0.8359375 l 1
 245 109.63671875 l 1
 247.5 109.63671875 l 0
 259.999969377 109.63671875 294.352539062 116.581054688 294.352539062 155.844726562 c 0
 294.352539062 206.1484375 186.052766526 205.790039062 132.89453125 231.143554688 c 0
 84.62890625 254.7265625 49.0908203125 288.415039062 49.0908203125 371.876953125 c 0
 49.0908203125 471.3046875 146.134765625 516.6328125 195.700661412 516.6328125 c 0
 198.305207316 516.6328125 l 1
 198.311326061 514.138671875 l 0
 198.394948913 479.448242188 198.373533304 444.760742188 198.373533304 410.076171875 c 0
 198.373533304 407.514648438 l 1
EndSplineSet
EndChar

StartChar: y
Encoding: 121 121 108
Width: 455
VWidth: 0
Flags: W
HStem: 494.688 20G<46 176.845 282.994 414>
LayerCount: 2
Back
Fore
SplineSet
46 514.197265625 m 1
 171.12109375 514.6875 l 1
 227.556957513 317.499476542 l 1
 228 319 l 1
 284.858398438 110.287109375 l 1
 204.779296875 -145 l 1
 87 -145 l 1
 162.834960938 111.841796875 l 1
 46 514.197265625 l 1
414 514.197265625 m 1
 322.353515625 231.438476562 l 1
 302.985351562 231.438476562 l 1
 254.047851562 396.301757812 l 1
 288.877929688 514.6875 l 1
 414 514.197265625 l 1
EndSplineSet
EndChar

StartChar: z
Encoding: 122 122 109
Width: 391
VWidth: 0
Flags: W
VStem: 50 289.789
LayerCount: 2
Back
Fore
SplineSet
184.51953125 113.603515625 m 17
 339.7890625 402.866210938 l 1
 339.7890625 514.24609375 l 1
 50 514 l 1
 50 400.11328125 l 1
 208.61328125 400.11328125 l 1
 50 113.603515625 l 1
 50 -0.494140625 l 1
 339.7890625 -0.494140625 l 1
 339.7890625 112.845703125 l 1
 184.51953125 113.603515625 l 17
EndSplineSet
EndChar

StartChar: equal
Encoding: 61 61 110
Width: 418
VWidth: 0
Flags: W
HStem: 131 127<50 368> 325 127<50 368>
VStem: 50 318<131 258 325 452>
LayerCount: 2
Back
Fore
SplineSet
368 258 m 1
 368 131 l 1
 50 131 l 1
 50 258 l 1
 368 258 l 1
368 452 m 1
 368 325 l 1
 50 325 l 1
 50 452 l 1
 368 452 l 1
EndSplineSet
EndChar

StartChar: question
Encoding: 63 63 111
Width: 457
VWidth: 0
Flags: HMW
HStem: -22 150.62<133.411 240.284> 580 120<169 285>
VStem: 50 119<495 580> 111.537 150.62<-0.127075 106.747> 124 129<166 305> 285 122<416 580>
LayerCount: 2
Back
Fore
SplineSet
111.537109375 53.3095703125 m 0xd4
 111.537109375 95.39453125 144.762695312 128.620117188 186.84765625 128.620117188 c 0
 228.932617188 128.620117188 262.157226562 95.39453125 262.157226562 53.3095703125 c 0
 262.157226562 11.224609375 228.932617188 -22 186.84765625 -22 c 0
 144.762695312 -22 111.537109375 11.224609375 111.537109375 53.3095703125 c 0xd4
169 496 m 25xe4
 50 496 l 1
 50 626 l 2xe4
 50 674.010742188 90.0537109375 699.686523438 133 700 c 2
 321 701.372070312 l 2
 383.5 701.372070312 407 659 407 622 c 2
 407 380 l 2
 407 332 362 305 322 305 c 2
 253 305 l 9
 253 166 l 25
 124 166 l 25
 124 416 l 25xcc
 285 416 l 25
 285 580 l 25
 169 580 l 25
 169 496 l 25xe4
EndSplineSet
EndChar

StartChar: grave
Encoding: 96 96 112
Width: 263
VWidth: 0
Flags: W
HStem: 605 152
LayerCount: 2
Back
Fore
SplineSet
122 605 m 1
 213 605 l 1
 176 757 l 1
 49 757 l 1
 122 605 l 1
EndSplineSet
EndChar

StartChar: backslash
Encoding: 92 92 113
Width: 402
VWidth: 0
Flags: W
VStem: 50 301
LayerCount: 2
Back
Fore
SplineSet
351 -23 m 25
 224 -23 l 25
 50 716 l 25
 176 716 l 25
 351 -23 l 25
EndSplineSet
EndChar

StartChar: sterling
Encoding: 163 163 114
Width: 540
VWidth: 0
Flags: W
HStem: 580 114<240.628 265 314 337.373>
LayerCount: 2
Back
Fore
SplineSet
339 474 m 25
 471 474 l 25
 471 545 l 17
 471 553 471 611 445 640 c 24
 413 675 386 694 335 694 c 9
 247 694 l 17
 227 694 177 690 150 660 c 24
 116 624 106 589 106 541 c 9
 106 388 l 25
 49.998046875 388 l 25
 49.998046875 281 l 25
 106 281 l 25
 106 0 l 25
 490 0 l 25
 490 117 l 25
 238 117 l 25
 238 282 l 25
 378 282 l 25
 378 389 l 25
 239 389 l 25
 239 544 l 17
 239.421875 571.109375 242.318359375 579.610351562 265 580 c 9
 314 580 l 17
 335.650390625 581.150390625 339.067382812 565.109375 339 547 c 9
 339 474 l 25
EndSplineSet
EndChar

StartChar: asciicircum
Encoding: 94 94 115
Width: 423
VWidth: 0
Flags: W
LayerCount: 2
Back
Fore
SplineSet
50.400390625 514.400390625 m 25
 144 513.599609375 l 25
 203.400390625 649.799804688 l 25
 278.799804688 513.799804688 l 25
 372.599609375 513.799804688 l 25
 240.400390625 761.200195312 l 25
 162.200195312 761.200195312 l 25
 50.400390625 514.400390625 l 25
EndSplineSet
EndChar

StartChar: bracketleft
Encoding: 91 91 116
Width: 258
VWidth: 0
Flags: W
VStem: 49.998 158
LayerCount: 2
Back
Fore
SplineSet
207.998046875 739 m 25
 49.998046875 739 l 25
 49.998046875 -36 l 25
 207.998046875 -36 l 25
 207.998046875 54 l 25
 154.998046875 54 l 25
 157.998046875 649 l 25
 207.998046875 649 l 25
 207.998046875 739 l 25
EndSplineSet
EndChar

StartChar: bracketright
Encoding: 93 93 117
Width: 258
VWidth: 0
Flags: W
HStem: -36 90<50.998 102.998> 649 90<49.998 99.998>
VStem: 50.998 157<-36 54 649 739> 102.998 105<54 649>
LayerCount: 2
Back
Refer: 99 40 S -1 0 0 1 699 0 2
Refer: 99 40 N -1 0 0 1 699 0 2
Fore
SplineSet
49.998046875 739 m 25xd0
 207.998046875 739 l 25
 207.998046875 -36 l 25
 50.998046875 -36 l 25
 50.998046875 54 l 25xe0
 102.998046875 54 l 25
 99.998046875 649 l 25
 49.998046875 649 l 25
 49.998046875 739 l 25xd0
EndSplineSet
EndChar

StartChar: bar
Encoding: 124 124 118
Width: 205
VWidth: 0
Flags: W
VStem: 50 105<-134 754>
LayerCount: 2
Back
Fore
SplineSet
50 754 m 1
 155 754 l 1
 155 -134 l 1
 50 -134 l 1
 50 754 l 1
EndSplineSet
EndChar

StartChar: asciitilde
Encoding: 126 126 119
Width: 568
VWidth: 0
Flags: W
LayerCount: 2
Back
Fore
SplineSet
517.998046875 281.200195312 m 1
 273.998046875 134 254.998046875 400.200195312 50.1982421875 271.600585938 c 1
 49.998046875 405 l 1
 272.3984375 531.600585938 282.797851562 266.400390625 518.3984375 412.200195312 c 1
 517.998046875 281.200195312 l 1
EndSplineSet
EndChar
